<svg width="132.63" height="137.082" viewBox="0 0 61.357 63.416" xmlns="http://www.w3.org/2000/svg"><path d="M56.816 50.736c4.259-5.433-9.28-11.288-9.026-18.186.252-6.899 14.18-11.749 10.33-17.479-3.851-5.729-13.603 5.337-20.086 2.965C31.55 15.665 31.242.918 24.603 2.81c-6.64 1.892.872 14.586-3.387 20.019-4.26 5.433-18.38 1.17-18.631 8.069-.252 6.899 14.142 3.677 17.993 9.407 3.85 5.729-4.567 17.841 1.916 20.213C28.977 62.889 30.362 48.205 37 46.313c6.639-1.892 15.557 9.856 19.815 4.423z" style="fill:none;fill-opacity:1;stroke-width:1;stroke-linecap:round;stroke-linejoin:round;stroke-dasharray:none;stroke-opacity:1;paint-order:stroke fill markers"/></svg>