<svg width="304.506" height="284.15" viewBox="0 0 80.568 75.181" xmlns="http://www.w3.org/2000/svg"><path style="fill:none;stroke-width:1;stroke-linecap:butt;stroke-linejoin:miter;stroke-dasharray:none;stroke-opacity:1;paint-order:normal" d="M26.104 9.77S3.525 12.91 3.8 22.21c3.956 9.35 21.58-5.153 26.39-.91 4.73 5.819-3.506 17.944 1.13 19.333 3.81.859 10.487-28.673 16.796-22.606 7.384 7.242-7.777 34.067-18.774 34.466C18.494 52.458 19.67 29.9 10.103 32.84c-5.88.686-7.586 10.835-7.159 20.87-.789 10.533 18.75 17.984 33.468 18.748 15.166-1.762 34.952-40.523 34.404-54.99-3.776-5.197-17.964 5.3-18.978-7.578C49.2 2.403 78.18 2.724 78.18 2.724"/></svg>