<svg width="216.162" height="223.417" viewBox="0 0 57.193 59.112" xmlns="http://www.w3.org/2000/svg">
<defs>
<filter id="shadow">
    <feColorMatrix type="matrix" values=
                "0 0 0 0   0
                 0 0 0 0   0
                 0 0 0 0   0
                 0 0 0 0.7 0"/>
    <feGaussianBlur stdDeviation="2.5" result="coloredBlur"/>
    <feMerge>
        <feMergeNode in="coloredBlur"/>
        <feMergeNode in="SourceGraphic"/>
    </feMerge>
</filter>
</defs>
<path d="M178.546 79.123c4.259-5.433-9.279-11.288-9.026-18.186.252-6.899 14.18-11.749 10.33-17.479-3.851-5.729-13.603 5.337-20.086 2.965-6.483-2.371-6.792-17.118-13.431-15.226-6.639 1.892.872 14.586-3.387 20.019-4.259 5.433-18.379 1.17-18.631 8.069-.252 6.899 14.142 3.677 17.993 9.407 3.85 5.729-4.567 17.841 1.916 20.213 6.483 2.371 7.868-12.313 14.507-14.205 6.639-1.892 15.557 9.856 19.815 4.423z" style="fill:none;fill-opacity:1;stroke:#f0f;stroke-width:1;stroke-linecap:round;stroke-linejoin:round;stroke-dasharray:none;stroke-opacity:1;paint-order:stroke fill markers;" transform="translate(-123.812 -30.54)"/></svg>