<svg width="286.506" height="267.353" viewBox="0 0 75.805 70.737" xmlns="http://www.w3.org/2000/svg"><path style="fill:none;stroke:#00ccd7;stroke-width:1;stroke-linecap:butt;stroke-linejoin:miter;stroke-dasharray:none;stroke-opacity:1;paint-order:normal" d="M23.723 7.549S1.144 10.689 1.419 19.988c3.956 9.35 21.579-5.153 26.39-.91 4.729 5.819-3.506 17.944 1.129 19.333 3.81.859 10.488-28.673 16.797-22.606 7.384 7.242-7.777 34.067-18.774 34.466-10.848-.035-9.673-22.592-19.239-19.653-5.88.686-7.586 10.835-7.159 20.87-.789 10.533 18.749 17.984 33.468 18.748 15.166-1.762 34.952-40.523 34.404-54.99-3.776-5.197-17.964 5.3-18.978-7.578C46.818.181 75.799.502 75.799.502"/></svg>